# xmcd CD database file
#
# Track frame offsets:
#	150
#	13989
#	26985
#	41651
#	56169
#	63543
#	77511
#	88686
#	103314
#	114804
#	125724
#	137463
#	146406
#	157281
#	170136
#	183136
#	195647
#	206967
#	218437
#	228070
#	238018
#	249392
#	261529
#	271292
#
# Disc length: 3852 seconds
#
# Revision: 0
# Processed by: cddbd v1.5.2PL0 Copyright (c) Steve Scherf et al.
# Submitted via: Feurio! 1.68 - http://www.feurio.com
#
DISCID=660f0a18
DTITLE=Hildegard Knef - Hildegard Knef
DYEAR=1900
DGENRE=
TTITLE0=Aber schön war es doch
TTITLE1=Ich bin zu müde, um schlafen zu geh'n
TTITLE2=Nichts haut mich um, aber du (I Get a Kick Out of You)
TTITLE3=Für mich soll's rote Rosen Regnen
TTITLE4=So oder so ist das Leben (Slowfox-Potpourri 1) [Remastered]
TTITLE5=In dieser Stadt
TTITLE6=(Ich brauch') Tapetenwechsel
TTITLE7=Wieviel Menschen waren glücklich, daß du gelebt?
TTITLE8=Halt' mich fest
TTITLE9=Von nun an ging's bergab
TTITLE10=Vergiss sie
TTITLE11=Lass mich bei dir sein
TTITLE12=Samtbraune Augen
TTITLE13=Ich zieh' mich an und langsam aus
TTITLE14=Eins und eins, das macht zwei
TTITLE15=Er war nie ein Kavalier
TTITLE16=Berlin, dein Gesicht hat Sommersprossen
TTITLE17=Ich brauch' kein Venedig
TTITLE18=Ich möchte am Montag mal Sonntag haben
TTITLE19=Das Glück kennt nur Minuten
TTITLE20=Sei mal verliebt (Let's Do It)
TTITLE21=Es war beim Bal Paré
TTITLE22=Illusionen (Langsamer Walzer-Potpourri 2)
TTITLE23=Papillon
EXTD=
EXTT0=
EXTT1=
EXTT2=
EXTT3=
EXTT4=
EXTT5=
EXTT6=
EXTT7=
EXTT8=
EXTT9=
EXTT10=
EXTT11=
EXTT12=
EXTT13=
EXTT14=
EXTT15=
EXTT16=
EXTT17=
EXTT18=
EXTT19=
EXTT20=
EXTT21=
EXTT22=
EXTT23=
PLAYORDER=
